<?xml version="1.0" encoding="UTF-8" standalone="no"?>
<!-- Created with Inkscape (http://www.inkscape.org/) -->

<svg
   xmlns:dc="http://purl.org/dc/elements/1.1/"
   xmlns:cc="http://creativecommons.org/ns#"
   xmlns:rdf="http://www.w3.org/1999/02/22-rdf-syntax-ns#"
   xmlns:svg="http://www.w3.org/2000/svg"
   xmlns="http://www.w3.org/2000/svg"
   xmlns:sodipodi="http://sodipodi.sourceforge.net/DTD/sodipodi-0.dtd"
   xmlns:inkscape="http://www.inkscape.org/namespaces/inkscape"
   id="svg2985"
   version="1.1"
   inkscape:version="0.48.5 r10040"
   width="1000"
   height="1000"
   xml:space="preserve"
   sodipodi:docname="punto_inicial.svg"><metadata
     id="metadata2991"><rdf:RDF><cc:Work
         rdf:about=""><dc:format>image/svg+xml</dc:format><dc:type
           rdf:resource="http://purl.org/dc/dcmitype/StillImage" /><dc:title></dc:title></cc:Work></rdf:RDF></metadata><defs
     id="defs2989"><clipPath
       clipPathUnits="userSpaceOnUse"
       id="clipPath3001"><path
         d="M 0,800 800,800 800,0 0,0 0,800 z"
         id="path3003" /></clipPath></defs><sodipodi:namedview
     pagecolor="#ffffff"
     bordercolor="#666666"
     borderopacity="1"
     objecttolerance="10"
     gridtolerance="10"
     guidetolerance="10"
     inkscape:pageopacity="0"
     inkscape:pageshadow="2"
     inkscape:window-width="1366"
     inkscape:window-height="706"
     id="namedview2987"
     showgrid="false"
     inkscape:zoom="0.51867615"
     inkscape:cx="500"
     inkscape:cy="366.74617"
     inkscape:window-x="-8"
     inkscape:window-y="-8"
     inkscape:window-maximized="1"
     inkscape:current-layer="g2993" /><g
     id="g2993"
     inkscape:groupmode="layer"
     inkscape:label="04"
     transform="matrix(1.25,0,0,-1.25,0,1000)"><path
       d="M 0,0 800,0 800,800 0,800 0,0 z"
       style="fill:#a9cab8;fill-opacity:1;fill-rule:nonzero;stroke:none"
       id="path2995" /><g
       id="g3502"
       transform="translate(91.058518,-33.932542)"
       inkscape:export-filename="C:\Users\snow\Dropbox\tesis\tesis2014\git\tesis\slides\img\punto_inicial.png"
       inkscape:export-xdpi="111.5669"
       inkscape:export-ydpi="111.5669"><g
         transform="translate(732.8369,237.4297)"
         id="g3005"><path
           inkscape:connector-curvature="0"
           id="path3007"
           style="fill:#f18700;fill-opacity:1;fill-rule:nonzero;stroke:none"
           d="m 0,0 c -1.734,30.531 -27.026,54.448 -57.58,54.448 -1.101,0 -2.218,-0.032 -3.319,-0.094 l -289.93,-16.464 65.422,148.949 1.002,2.265 c 1.852,4.27 2.743,8.808 2.648,13.488 -0.359,17.646 -15.163,31.979 -32.906,31.593 l -197.865,-4.031 66.587,113.766 0.431,0.735 c 0.299,0.52 0.569,1.063 0.8,1.606 1.551,3.646 1.589,7.678 0.108,11.353 -1.46,3.62 -4.222,6.468 -7.791,8.034 l -105.743,51.064 10.189,10.892 c 0.693,0.739 1.267,1.576 1.708,2.493 1.322,2.743 1.324,5.891 0.01,8.634 -1.755,3.665 -5.625,5.942 -9.739,5.638 l -67.752,-5.066 c -3.541,-0.267 -6.697,-2.42 -8.237,-5.617 -1.541,-3.201 -1.256,-7.012 0.744,-9.945 l 38.261,-56.137 c 1.859,-2.729 4.939,-4.358 8.241,-4.358 0.751,0 1.504,0.086 2.235,0.254 4.037,0.928 7.033,4.175 7.633,8.27 l 2.482,16.892 81.029,-49.76 -80.19,-119.794 c -2.341,-3.354 -3.721,-7.263 -3.991,-11.313 -0.396,-5.938 1.545,-11.675 5.464,-16.154 3.919,-4.479 9.348,-7.163 15.285,-7.559 l 185.877,-12.388 -88.44,-161.597 c -3.171,-5.848 -4.952,-12.406 -5.15,-18.964 -0.702,-23.258 17.649,-42.751 40.906,-43.453 l 231.965,-7.003 -169.541,-178.107 235.376,0 109.583,195.928 2.526,3.314 C -3.363,-27.272 0.778,-13.711 0,0" /></g><g
         transform="translate(114.8311,665.3755)"
         id="g3009"><path
           inkscape:connector-curvature="0"
           id="path3011"
           style="fill:none;stroke:#ffffff;stroke-width:1;stroke-linecap:butt;stroke-linejoin:round;stroke-miterlimit:10;stroke-opacity:1;stroke-dasharray:4, 4;stroke-dashoffset:0"
           d="m 0,0 152.979,-78.445 -87.526,-142.841 237.41,-5.483 -103.53,-210.388 358.836,4.764 -194.035,-232.982" /></g><g
         transform="translate(307.269,17.5781)"
         id="g3013"><path
           inkscape:connector-curvature="0"
           id="path3015"
           style="fill:#000000;fill-opacity:1;fill-rule:nonzero;stroke:none"
           d="m 0,0 c 0,-0.499 0.076,-0.928 0.23,-1.278 0.159,-0.355 0.374,-0.617 0.641,-0.798 0.27,-0.179 0.566,-0.271 0.887,-0.271 0.324,0 0.623,0.092 0.892,0.259 0.268,0.168 0.483,0.424 0.645,0.776 0.158,0.355 0.24,0.789 0.24,1.312 0,0.495 -0.082,0.916 -0.24,1.269 C 3.133,1.625 2.918,1.899 2.645,2.086 2.369,2.275 2.07,2.366 1.746,2.366 1.406,2.366 1.104,2.27 0.838,2.082 0.572,1.887 0.365,1.607 0.217,1.248 0.072,0.892 0,0.475 0,0 m 3.637,-2.716 0,0.187 C 3.389,-2.818 3.143,-3.048 2.902,-3.225 2.66,-3.407 2.398,-3.54 2.115,-3.634 1.832,-3.725 1.523,-3.773 1.189,-3.773 c -0.441,0 -0.853,0.093 -1.228,0.283 -0.379,0.183 -0.705,0.453 -0.979,0.803 -0.277,0.34 -0.486,0.751 -0.628,1.223 -0.143,0.47 -0.213,0.98 -0.213,1.525 0,1.158 0.283,2.058 0.845,2.705 0.567,0.645 1.309,0.966 2.229,0.966 0.537,0 0.984,-0.092 1.349,-0.273 C 2.934,3.274 3.289,2.993 3.637,2.62 l 0,2.726 c 0,0.379 0.076,0.662 0.228,0.861 0.151,0.198 0.367,0.291 0.643,0.291 0.281,0 0.498,-0.091 0.65,-0.27 C 5.311,6.051 5.387,5.786 5.387,5.441 l 0,-8.157 c 0,-0.352 -0.084,-0.618 -0.244,-0.795 -0.166,-0.173 -0.373,-0.262 -0.635,-0.262 -0.252,0 -0.459,0.089 -0.623,0.273 -0.166,0.181 -0.248,0.446 -0.248,0.784" /></g><g
         transform="translate(316.0581,18.1592)"
         id="g3017"><path
           inkscape:connector-curvature="0"
           id="path3019"
           style="fill:#000000;fill-opacity:1;fill-rule:nonzero;stroke:none"
           d="M 0,0 3.352,0 C 3.311,0.638 3.139,1.103 2.838,1.419 2.545,1.733 2.152,1.892 1.672,1.892 1.213,1.892 0.832,1.733 0.537,1.417 0.24,1.096 0.059,0.627 0,0 m 3.617,-1.049 -3.617,0 c 0.004,-0.42 0.088,-0.79 0.252,-1.109 0.166,-0.324 0.383,-0.566 0.66,-0.724 0.272,-0.167 0.572,-0.243 0.902,-0.243 0.223,0 0.424,0.021 0.608,0.073 0.182,0.051 0.355,0.139 0.531,0.245 0.172,0.108 0.33,0.229 0.477,0.359 0.142,0.124 0.328,0.297 0.558,0.511 0.096,0.08 0.231,0.126 0.408,0.126 0.192,0 0.34,-0.051 0.461,-0.154 0.116,-0.104 0.176,-0.257 0.176,-0.442 0,-0.171 -0.066,-0.364 -0.197,-0.589 C 4.705,-3.222 4.508,-3.436 4.24,-3.639 3.98,-3.843 3.648,-4.013 3.246,-4.155 2.85,-4.287 2.389,-4.354 1.867,-4.354 c -1.189,0 -2.109,0.341 -2.773,1.015 -0.658,0.677 -0.989,1.593 -0.989,2.758 0,0.547 0.083,1.056 0.245,1.52 0.166,0.467 0.4,0.873 0.713,1.204 0.312,0.336 0.695,0.589 1.152,0.773 0.457,0.177 0.963,0.259 1.521,0.259 0.721,0 1.34,-0.147 1.854,-0.455 C 4.109,2.419 4.5,2.023 4.758,1.54 5.014,1.06 5.141,0.562 5.141,0.062 5.141,-0.403 5.008,-0.708 4.742,-0.843 4.475,-0.979 4.098,-1.049 3.617,-1.049" /></g><g
         transform="translate(328.7124,16.2227)"
         id="g3021"><path
           inkscape:connector-curvature="0"
           id="path3023"
           style="fill:#000000;fill-opacity:1;fill-rule:nonzero;stroke:none"
           d="m 0,0 c 0,-0.509 -0.123,-0.945 -0.369,-1.307 -0.25,-0.369 -0.617,-0.644 -1.104,-0.828 -0.484,-0.189 -1.074,-0.283 -1.769,-0.283 -0.662,0 -1.235,0.101 -1.711,0.305 -0.475,0.203 -0.824,0.459 -1.049,0.759 -0.225,0.307 -0.338,0.616 -0.338,0.922 0,0.203 0.07,0.375 0.217,0.52 0.144,0.145 0.324,0.218 0.551,0.218 0.193,0 0.34,-0.047 0.443,-0.144 0.106,-0.088 0.207,-0.227 0.301,-0.397 0.189,-0.329 0.416,-0.573 0.68,-0.737 0.263,-0.161 0.628,-0.245 1.082,-0.245 0.371,0 0.671,0.084 0.912,0.245 0.236,0.167 0.353,0.356 0.353,0.561 0,0.331 -0.123,0.572 -0.367,0.717 -0.248,0.149 -0.652,0.296 -1.219,0.427 -0.634,0.159 -1.154,0.321 -1.552,0.496 -0.401,0.176 -0.719,0.403 -0.961,0.689 -0.237,0.286 -0.358,0.636 -0.358,1.05 0,0.367 0.108,0.721 0.332,1.053 0.219,0.328 0.547,0.587 0.977,0.786 0.435,0.199 0.953,0.294 1.562,0.294 0.477,0 0.908,-0.047 1.293,-0.149 0.383,-0.096 0.699,-0.231 0.955,-0.401 0.256,-0.165 0.45,-0.352 0.582,-0.554 0.133,-0.202 0.2,-0.399 0.2,-0.595 0,-0.212 -0.071,-0.39 -0.211,-0.517 -0.145,-0.138 -0.348,-0.206 -0.608,-0.206 -0.191,0 -0.351,0.05 -0.486,0.161 -0.133,0.105 -0.285,0.268 -0.455,0.489 -0.143,0.179 -0.309,0.325 -0.496,0.434 -0.19,0.107 -0.448,0.163 -0.774,0.163 -0.336,0 -0.611,-0.076 -0.832,-0.218 -0.222,-0.141 -0.33,-0.318 -0.33,-0.53 0,-0.194 0.08,-0.351 0.24,-0.473 0.164,-0.127 0.381,-0.234 0.659,-0.312 0.273,-0.08 0.656,-0.177 1.14,-0.3 C -1.939,1.952 -1.467,1.786 -1.105,1.595 -0.74,1.397 -0.467,1.169 -0.279,0.907 -0.09,0.639 0,0.336 0,0" /></g><g
         transform="translate(332.1304,20.2754)"
         id="g3025"><path
           inkscape:connector-curvature="0"
           id="path3027"
           style="fill:#000000;fill-opacity:1;fill-rule:nonzero;stroke:none"
           d="m 0,0 0,-5.347 c 0,-0.367 -0.088,-0.649 -0.264,-0.837 -0.175,-0.193 -0.398,-0.287 -0.672,-0.287 -0.271,0 -0.49,0.094 -0.66,0.292 -0.168,0.194 -0.252,0.472 -0.252,0.832 l 0,5.291 c 0,0.367 0.084,0.644 0.252,0.823 0.17,0.19 0.389,0.281 0.66,0.281 0.274,0 0.497,-0.091 0.672,-0.281 C -0.088,0.588 0,0.333 0,0 m -0.912,1.906 c -0.262,0 -0.481,0.086 -0.66,0.238 -0.186,0.161 -0.276,0.383 -0.276,0.672 0,0.263 0.092,0.483 0.282,0.65 0.187,0.167 0.402,0.254 0.654,0.254 0.236,0 0.447,-0.078 0.635,-0.23 C -0.092,3.333 0,3.108 0,2.816 0,2.532 -0.088,2.311 -0.271,2.147 -0.451,1.992 -0.662,1.906 -0.912,1.906" /></g><g
         transform="translate(335.4858,17.6201)"
         id="g3029"><path
           inkscape:connector-curvature="0"
           id="path3031"
           style="fill:#000000;fill-opacity:1;fill-rule:nonzero;stroke:none"
           d="m 0,0 c 0,-0.745 0.164,-1.313 0.49,-1.694 0.328,-0.38 0.75,-0.577 1.272,-0.577 0.308,0 0.599,0.083 0.869,0.251 0.273,0.166 0.498,0.412 0.67,0.743 0.174,0.333 0.26,0.736 0.26,1.206 0,0.758 -0.17,1.343 -0.5,1.761 C 2.727,2.113 2.289,2.324 1.748,2.324 1.219,2.324 0.793,2.123 0.479,1.715 0.158,1.316 0,0.747 0,0 m 5.359,2.352 0,-5.376 C 5.359,-3.635 5.297,-4.166 5.162,-4.605 5.035,-5.054 4.822,-5.411 4.533,-5.706 4.244,-5.99 3.869,-6.209 3.398,-6.352 2.93,-6.487 2.348,-6.558 1.654,-6.558 c -0.638,0 -1.209,0.088 -1.709,0.264 -0.5,0.181 -0.884,0.415 -1.162,0.695 -0.265,0.282 -0.402,0.57 -0.402,0.87 0,0.23 0.078,0.412 0.23,0.55 0.151,0.145 0.336,0.218 0.555,0.218 0.272,0 0.508,-0.121 0.711,-0.362 0.098,-0.121 0.201,-0.243 0.309,-0.37 0.109,-0.12 0.222,-0.229 0.353,-0.316 0.129,-0.09 0.285,-0.154 0.461,-0.197 0.182,-0.042 0.391,-0.065 0.625,-0.065 0.479,0 0.852,0.065 1.117,0.198 0.264,0.133 0.449,0.321 0.559,0.558 0.103,0.241 0.162,0.498 0.179,0.767 0.02,0.276 0.034,0.714 0.045,1.322 C 3.24,-2.819 2.91,-3.129 2.535,-3.332 2.164,-3.542 1.723,-3.65 1.205,-3.65 c -0.617,0 -1.158,0.164 -1.621,0.479 -0.465,0.313 -0.822,0.758 -1.066,1.33 -0.252,0.57 -0.375,1.225 -0.375,1.975 0,0.549 0.076,1.05 0.226,1.5 0.152,0.445 0.365,0.824 0.649,1.13 0.279,0.31 0.603,0.537 0.97,0.699 C 0.354,3.612 0.754,3.69 1.191,3.69 1.715,3.69 2.17,3.594 2.557,3.389 2.938,3.19 3.295,2.875 3.625,2.449 l 0,0.244 c 0,0.325 0.08,0.573 0.238,0.748 0.16,0.177 0.36,0.262 0.61,0.262 0.357,0 0.593,-0.116 0.713,-0.347 C 5.301,3.123 5.359,2.793 5.359,2.352" /></g><g
         transform="translate(344.3979,20.3018)"
         id="g3033"><path
           inkscape:connector-curvature="0"
           id="path3035"
           style="fill:#000000;fill-opacity:1;fill-rule:nonzero;stroke:none"
           d="m 0,0 0,-0.224 c 0.326,0.43 0.68,0.745 1.066,0.944 0.389,0.203 0.83,0.301 1.332,0.301 0.489,0 0.926,-0.105 1.309,-0.314 C 4.09,0.492 4.377,0.193 4.568,-0.196 4.689,-0.422 4.77,-0.668 4.803,-0.925 4.84,-1.192 4.859,-1.522 4.859,-1.931 l 0,-3.442 C 4.859,-5.74 4.773,-6.022 4.605,-6.21 4.436,-6.403 4.213,-6.497 3.943,-6.497 c -0.277,0 -0.498,0.094 -0.672,0.292 -0.171,0.193 -0.257,0.472 -0.257,0.832 l 0,3.08 c 0,0.61 -0.084,1.08 -0.254,1.404 -0.168,0.321 -0.508,0.48 -1.014,0.48 -0.328,0 -0.631,-0.094 -0.9,-0.294 C 0.572,-0.893 0.375,-1.162 0.25,-1.505 0.16,-1.789 0.113,-2.303 0.113,-3.052 l 0,-2.321 c 0,-0.374 -0.086,-0.657 -0.259,-0.841 -0.176,-0.189 -0.399,-0.283 -0.674,-0.283 -0.268,0 -0.487,0.094 -0.659,0.292 -0.173,0.193 -0.255,0.472 -0.255,0.832 l 0,5.347 c 0,0.353 0.076,0.616 0.23,0.787 0.154,0.176 0.363,0.26 0.629,0.26 0.162,0 0.311,-0.037 0.439,-0.109 0.129,-0.084 0.239,-0.199 0.315,-0.35 C -0.039,0.408 0,0.22 0,0" /></g><g
         transform="translate(352.646,18.1592)"
         id="g3037"><path
           inkscape:connector-curvature="0"
           id="path3039"
           style="fill:#000000;fill-opacity:1;fill-rule:nonzero;stroke:none"
           d="M 0,0 3.352,0 C 3.307,0.638 3.137,1.103 2.84,1.419 2.547,1.733 2.154,1.892 1.67,1.892 1.211,1.892 0.834,1.733 0.535,1.417 0.244,1.096 0.062,0.627 0,0 m 3.615,-1.049 -3.615,0 c 0.002,-0.42 0.084,-0.79 0.252,-1.109 0.164,-0.324 0.385,-0.566 0.656,-0.724 0.276,-0.167 0.578,-0.243 0.906,-0.243 0.221,0 0.424,0.021 0.606,0.073 0.185,0.051 0.359,0.139 0.537,0.245 0.168,0.108 0.328,0.229 0.469,0.359 0.148,0.124 0.332,0.297 0.562,0.511 0.096,0.08 0.233,0.126 0.41,0.126 0.19,0 0.34,-0.051 0.457,-0.154 0.122,-0.104 0.178,-0.257 0.178,-0.442 0,-0.171 -0.064,-0.364 -0.195,-0.589 C 4.707,-3.222 4.508,-3.436 4.242,-3.639 3.98,-3.843 3.65,-4.013 3.246,-4.155 2.85,-4.287 2.387,-4.354 1.869,-4.354 c -1.189,0 -2.111,0.341 -2.773,1.015 -0.657,0.677 -0.989,1.593 -0.989,2.758 0,0.547 0.082,1.056 0.245,1.52 0.16,0.467 0.402,0.873 0.712,1.204 0.313,0.336 0.694,0.589 1.151,0.773 C 0.67,3.093 1.178,3.175 1.734,3.175 2.453,3.175 3.078,3.028 3.592,2.72 4.109,2.419 4.498,2.023 4.76,1.54 5.014,1.06 5.141,0.562 5.141,0.062 5.141,-0.403 5.006,-0.708 4.74,-0.843 4.477,-0.979 4.104,-1.049 3.615,-1.049" /></g><g
         transform="translate(360.7788,17.5781)"
         id="g3041"><path
           inkscape:connector-curvature="0"
           id="path3043"
           style="fill:#000000;fill-opacity:1;fill-rule:nonzero;stroke:none"
           d="m 0,0 c 0,-0.499 0.078,-0.928 0.232,-1.278 0.157,-0.355 0.372,-0.617 0.641,-0.798 0.272,-0.179 0.566,-0.271 0.887,-0.271 0.326,0 0.623,0.092 0.892,0.259 0.264,0.168 0.481,0.424 0.641,0.776 C 3.455,-0.957 3.537,-0.523 3.537,0 3.537,0.495 3.455,0.916 3.293,1.269 3.133,1.625 2.916,1.899 2.643,2.086 2.371,2.275 2.07,2.366 1.746,2.366 1.406,2.366 1.105,2.27 0.836,2.082 0.57,1.887 0.365,1.607 0.221,1.248 0.072,0.892 0,0.475 0,0 m 3.639,-2.716 0,0.187 C 3.387,-2.818 3.145,-3.048 2.902,-3.225 2.658,-3.407 2.395,-3.54 2.117,-3.634 1.834,-3.725 1.525,-3.773 1.191,-3.773 c -0.443,0 -0.853,0.093 -1.232,0.283 -0.377,0.183 -0.701,0.453 -0.979,0.803 -0.275,0.34 -0.482,0.751 -0.625,1.223 -0.144,0.47 -0.214,0.98 -0.214,1.525 0,1.158 0.283,2.058 0.845,2.705 0.569,0.645 1.315,0.966 2.233,0.966 0.533,0 0.982,-0.092 1.345,-0.273 C 2.932,3.274 3.289,2.993 3.639,2.62 l 0,2.726 c 0,0.379 0.074,0.662 0.226,0.861 0.151,0.198 0.367,0.291 0.647,0.291 0.281,0 0.494,-0.091 0.648,-0.27 C 5.309,6.051 5.387,5.786 5.387,5.441 l 0,-8.157 c 0,-0.352 -0.082,-0.618 -0.246,-0.795 -0.161,-0.173 -0.375,-0.262 -0.629,-0.262 -0.256,0 -0.461,0.089 -0.629,0.273 -0.162,0.181 -0.244,0.446 -0.244,0.784" /></g><g
         transform="translate(373.2886,17.5254)"
         id="g3045"><path
           inkscape:connector-curvature="0"
           id="path3047"
           style="fill:#000000;fill-opacity:1;fill-rule:nonzero;stroke:none"
           d="m 0,0 c 0,-0.738 0.168,-1.303 0.506,-1.698 0.334,-0.396 0.773,-0.596 1.322,-0.596 0.463,0 0.865,0.204 1.201,0.607 0.342,0.409 0.508,0.986 0.508,1.74 0,0.492 -0.072,0.907 -0.211,1.262 C 3.186,1.665 2.984,1.939 2.729,2.135 2.473,2.322 2.17,2.419 1.828,2.419 1.477,2.419 1.164,2.322 0.887,2.135 0.613,1.939 0.393,1.66 0.232,1.295 0.078,0.929 0,0.498 0,0 m -0.088,5.494 0,-2.821 C 0.26,3.027 0.613,3.306 0.973,3.496 1.34,3.692 1.783,3.785 2.316,3.785 2.93,3.785 3.471,3.639 3.932,3.35 4.395,3.061 4.756,2.636 5.006,2.077 5.268,1.528 5.393,0.874 5.393,0.113 5.393,-0.446 5.32,-0.96 5.182,-1.425 5.037,-1.892 4.83,-2.302 4.559,-2.641 4.289,-2.984 3.959,-3.254 3.572,-3.438 3.186,-3.627 2.762,-3.721 2.297,-3.721 c -0.289,0 -0.553,0.035 -0.805,0.101 -0.248,0.064 -0.463,0.16 -0.642,0.271 -0.174,0.112 -0.323,0.223 -0.45,0.338 -0.121,0.12 -0.287,0.298 -0.488,0.534 l 0,-0.186 c 0,-0.348 -0.086,-0.612 -0.254,-0.795 -0.164,-0.173 -0.375,-0.263 -0.638,-0.263 -0.256,0 -0.469,0.09 -0.625,0.263 -0.157,0.183 -0.233,0.447 -0.233,0.795 l 0,8.078 c 0,0.372 0.074,0.655 0.227,0.847 0.152,0.196 0.361,0.289 0.631,0.289 0.287,0 0.507,-0.091 0.662,-0.278 0.15,-0.18 0.23,-0.444 0.23,-0.779" /></g><g
         transform="translate(381.6909,13.5762)"
         id="g3049"><path
           inkscape:connector-curvature="0"
           id="path3051"
           style="fill:#000000;fill-opacity:1;fill-rule:nonzero;stroke:none"
           d="m 0,0 0.168,0.414 -2.277,5.729 c -0.139,0.332 -0.209,0.564 -0.209,0.718 0,0.155 0.043,0.306 0.123,0.442 0.08,0.135 0.189,0.24 0.334,0.323 0.144,0.081 0.289,0.121 0.445,0.121 0.268,0 0.465,-0.085 0.602,-0.248 0.136,-0.175 0.255,-0.417 0.359,-0.731 L 1.113,2.215 2.594,6.45 c 0.119,0.344 0.228,0.612 0.318,0.805 0.094,0.19 0.199,0.323 0.305,0.393 0.105,0.065 0.254,0.099 0.451,0.099 0.137,0 0.273,-0.037 0.4,-0.109 C 4.199,7.561 4.299,7.461 4.365,7.334 4.441,7.207 4.473,7.076 4.473,6.937 4.455,6.853 4.424,6.734 4.387,6.572 4.346,6.413 4.293,6.249 4.236,6.088 L 1.822,-0.223 C 1.611,-0.781 1.412,-1.217 1.209,-1.53 1.016,-1.851 0.752,-2.087 0.424,-2.261 c -0.33,-0.165 -0.772,-0.253 -1.326,-0.253 -0.541,0 -0.948,0.06 -1.217,0.173 -0.274,0.121 -0.408,0.332 -0.408,0.646 0,0.213 0.062,0.375 0.191,0.491 0.129,0.118 0.32,0.174 0.574,0.174 0.098,0 0.196,-0.014 0.291,-0.04 0.117,-0.029 0.217,-0.037 0.307,-0.037 0.209,0 0.379,0.028 0.5,0.089 0.123,0.064 0.23,0.174 0.326,0.331 C -0.24,-0.532 -0.125,-0.302 0,0" /></g><g
         transform="translate(415.9238,21.1641)"
         id="g3053"><path
           inkscape:connector-curvature="0"
           id="path3055"
           style="fill:#000000;fill-opacity:1;fill-rule:nonzero;stroke:none"
           d="m 0,0 0.439,0 0,0.554 c 0,0.578 0.073,1.04 0.227,1.376 0.141,0.344 0.391,0.59 0.742,0.746 0.35,0.16 0.826,0.236 1.444,0.236 1.074,0 1.617,-0.265 1.617,-0.794 C 4.469,1.947 4.408,1.802 4.295,1.676 4.184,1.554 4.053,1.493 3.898,1.493 3.822,1.493 3.697,1.507 3.521,1.538 3.35,1.562 3.199,1.575 3.078,1.575 2.74,1.575 2.527,1.478 2.432,1.283 2.338,1.082 2.291,0.802 2.291,0.442 L 2.291,0 2.746,0 c 0.705,0 1.057,-0.215 1.057,-0.643 0,-0.298 -0.09,-0.489 -0.282,-0.573 C 3.334,-1.295 3.078,-1.339 2.746,-1.339 l -0.455,0 0,-4.896 c 0,-0.363 -0.088,-0.641 -0.258,-0.835 -0.178,-0.196 -0.4,-0.289 -0.678,-0.289 -0.261,0 -0.48,0.093 -0.656,0.289 -0.172,0.194 -0.26,0.472 -0.26,0.835 l 0,4.896 -0.509,0 c -0.276,0 -0.483,0.062 -0.633,0.193 -0.152,0.12 -0.225,0.281 -0.225,0.482 C -0.928,-0.221 -0.617,0 0,0" /></g><g
         transform="translate(422.5332,16.4795)"
         id="g3057"><path
           inkscape:connector-curvature="0"
           id="path3059"
           style="fill:#000000;fill-opacity:1;fill-rule:nonzero;stroke:none"
           d="m 0,0 0,-1.551 c 0,-0.374 -0.088,-0.657 -0.262,-0.841 -0.179,-0.189 -0.404,-0.283 -0.675,-0.283 -0.262,0 -0.485,0.094 -0.653,0.287 -0.178,0.188 -0.262,0.47 -0.262,0.837 l 0,5.15 c 0,0.832 0.297,1.245 0.901,1.245 0.305,0 0.529,-0.095 0.662,-0.29 0.139,-0.192 0.213,-0.483 0.227,-0.859 0.222,0.376 0.449,0.667 0.681,0.859 0.233,0.195 0.541,0.29 0.932,0.29 0.386,0 0.763,-0.095 1.131,-0.29 C 3.049,4.362 3.229,4.103 3.229,3.786 3.229,3.553 3.154,3.374 2.998,3.22 2.842,3.078 2.676,3.006 2.49,3.006 2.424,3.006 2.262,3.045 2.002,3.123 1.742,3.214 1.516,3.254 1.311,3.254 1.043,3.254 0.82,3.185 0.648,3.038 0.477,2.897 0.348,2.687 0.246,2.407 0.152,2.128 0.086,1.791 0.049,1.405 0.014,1.021 0,0.55 0,0" /></g><g
         transform="translate(427.9727,18.1592)"
         id="g3061"><path
           inkscape:connector-curvature="0"
           id="path3063"
           style="fill:#000000;fill-opacity:1;fill-rule:nonzero;stroke:none"
           d="M 0,0 3.355,0 C 3.307,0.638 3.145,1.103 2.85,1.419 2.547,1.733 2.158,1.892 1.676,1.892 1.213,1.892 0.838,1.733 0.537,1.417 0.244,1.096 0.066,0.627 0,0 m 3.619,-1.049 -3.619,0 c 0.01,-0.42 0.09,-0.79 0.256,-1.109 0.162,-0.324 0.381,-0.566 0.658,-0.724 0.272,-0.167 0.572,-0.243 0.9,-0.243 0.223,0 0.428,0.021 0.61,0.073 0.185,0.051 0.359,0.139 0.531,0.245 0.176,0.108 0.33,0.229 0.475,0.359 0.146,0.124 0.336,0.297 0.566,0.511 0.094,0.08 0.231,0.126 0.406,0.126 0.19,0 0.342,-0.051 0.455,-0.154 0.116,-0.104 0.18,-0.257 0.18,-0.442 0,-0.171 -0.064,-0.364 -0.197,-0.589 C 4.705,-3.222 4.508,-3.436 4.252,-3.639 3.986,-3.843 3.65,-4.013 3.25,-4.155 2.85,-4.287 2.389,-4.354 1.873,-4.354 c -1.193,0 -2.115,0.341 -2.773,1.015 -0.661,0.677 -0.989,1.593 -0.989,2.758 0,0.547 0.08,1.056 0.246,1.52 0.159,0.467 0.397,0.873 0.709,1.204 0.311,0.336 0.696,0.589 1.155,0.773 C 0.672,3.093 1.18,3.175 1.74,3.175 2.461,3.175 3.074,3.028 3.594,2.72 4.113,2.419 4.502,2.023 4.76,1.54 5.016,1.06 5.148,0.562 5.148,0.062 5.148,-0.403 5.016,-0.708 4.744,-0.843 4.475,-0.979 4.107,-1.049 3.619,-1.049" /></g><g
         transform="translate(436.2187,18.1592)"
         id="g3065"><path
           inkscape:connector-curvature="0"
           id="path3067"
           style="fill:#000000;fill-opacity:1;fill-rule:nonzero;stroke:none"
           d="M 0,0 3.354,0 C 3.309,0.638 3.139,1.103 2.844,1.419 2.549,1.733 2.162,1.892 1.678,1.892 1.215,1.892 0.84,1.733 0.541,1.417 0.25,1.096 0.062,0.627 0,0 m 3.621,-1.049 -3.621,0 c 0.008,-0.42 0.092,-0.79 0.256,-1.109 0.164,-0.324 0.387,-0.566 0.656,-0.724 0.275,-0.167 0.578,-0.243 0.906,-0.243 0.221,0 0.418,0.021 0.604,0.073 0.183,0.051 0.367,0.139 0.531,0.245 0.172,0.108 0.33,0.229 0.477,0.359 0.144,0.124 0.338,0.297 0.564,0.511 0.096,0.08 0.229,0.126 0.406,0.126 0.19,0 0.346,-0.051 0.461,-0.154 0.116,-0.104 0.174,-0.257 0.174,-0.442 0,-0.171 -0.064,-0.364 -0.191,-0.589 C 4.711,-3.222 4.512,-3.436 4.246,-3.639 3.984,-3.843 3.65,-4.013 3.252,-4.155 2.852,-4.287 2.391,-4.354 1.873,-4.354 c -1.186,0 -2.111,0.341 -2.771,1.015 -0.661,0.677 -0.989,1.593 -0.989,2.758 0,0.547 0.082,1.056 0.241,1.52 0.164,0.467 0.4,0.873 0.712,1.204 0.313,0.336 0.696,0.589 1.155,0.773 C 0.678,3.093 1.182,3.175 1.736,3.175 2.457,3.175 3.08,3.028 3.6,2.72 4.113,2.419 4.502,2.023 4.762,1.54 5.02,1.06 5.145,0.562 5.145,0.062 5.145,-0.403 5.014,-0.708 4.746,-0.843 4.479,-0.979 4.107,-1.049 3.621,-1.049" /></g><g
         transform="translate(448.0742,17.5977)"
         id="g3069"><path
           inkscape:connector-curvature="0"
           id="path3071"
           style="fill:#000000;fill-opacity:1;fill-rule:nonzero;stroke:none"
           d="m 0,0 c 0,0.49 -0.074,0.91 -0.225,1.256 -0.15,0.353 -0.355,0.624 -0.617,0.81 -0.263,0.19 -0.556,0.281 -0.881,0.281 -0.506,0 -0.937,-0.201 -1.291,-0.61 -0.347,-0.398 -0.527,-0.992 -0.527,-1.77 0,-0.733 0.176,-1.307 0.527,-1.716 0.344,-0.413 0.776,-0.617 1.291,-0.617 0.313,0 0.592,0.092 0.852,0.27 0.266,0.182 0.475,0.444 0.633,0.8 C -0.082,-0.933 0,-0.504 0,0 m -3.627,2.686 0,-0.214 c 0.354,0.425 0.713,0.741 1.086,0.939 0.375,0.205 0.799,0.302 1.275,0.302 0.567,0 1.09,-0.147 1.571,-0.438 C 0.783,2.98 1.16,2.551 1.441,1.988 1.717,1.428 1.855,0.758 1.855,-0.02 1.855,-0.586 1.773,-1.107 1.613,-1.586 1.455,-2.063 1.234,-2.463 0.953,-2.785 0.674,-3.108 0.346,-3.358 -0.035,-3.532 c -0.381,-0.174 -0.793,-0.261 -1.231,-0.261 -0.531,0 -0.974,0.108 -1.332,0.318 -0.363,0.213 -0.705,0.525 -1.029,0.933 l 0,-2.774 c 0,-0.811 -0.301,-1.219 -0.883,-1.219 -0.353,0 -0.582,0.105 -0.697,0.312 -0.113,0.212 -0.166,0.521 -0.166,0.92 l 0,7.981 c 0,0.353 0.076,0.616 0.228,0.787 0.153,0.176 0.364,0.261 0.635,0.261 0.26,0 0.471,-0.085 0.635,-0.267 0.168,-0.178 0.248,-0.435 0.248,-0.773" /></g><g
         transform="translate(453.2656,20.2754)"
         id="g3073"><path
           inkscape:connector-curvature="0"
           id="path3075"
           style="fill:#000000;fill-opacity:1;fill-rule:nonzero;stroke:none"
           d="m 0,0 0,-5.347 c 0,-0.367 -0.09,-0.649 -0.268,-0.837 -0.173,-0.193 -0.392,-0.287 -0.669,-0.287 -0.272,0 -0.491,0.094 -0.659,0.292 -0.168,0.194 -0.256,0.472 -0.256,0.832 l 0,5.291 c 0,0.367 0.088,0.644 0.256,0.823 0.168,0.19 0.387,0.281 0.659,0.281 0.277,0 0.496,-0.091 0.669,-0.281 C -0.09,0.588 0,0.333 0,0 m -0.91,1.906 c -0.264,0 -0.486,0.086 -0.666,0.238 -0.18,0.161 -0.276,0.383 -0.276,0.672 0,0.263 0.096,0.483 0.286,0.65 0.181,0.167 0.402,0.254 0.656,0.254 0.234,0 0.447,-0.078 0.633,-0.23 C -0.094,3.333 0,3.108 0,2.816 0,2.532 -0.09,2.311 -0.273,2.147 -0.453,1.992 -0.67,1.906 -0.91,1.906" /></g><g
         transform="translate(459.7832,14.6514)"
         id="g3077"><path
           inkscape:connector-curvature="0"
           id="path3079"
           style="fill:#000000;fill-opacity:1;fill-rule:nonzero;stroke:none"
           d="m 0,0 -1.635,2.685 -1.004,-0.952 0,-1.468 c 0,-0.355 -0.088,-0.628 -0.273,-0.823 -0.193,-0.195 -0.412,-0.289 -0.649,-0.289 -0.289,0 -0.507,0.094 -0.669,0.287 -0.17,0.188 -0.247,0.47 -0.247,0.837 l 0,7.885 c 0,0.412 0.075,0.726 0.231,0.939 0.164,0.215 0.391,0.324 0.685,0.324 0.284,0 0.508,-0.093 0.676,-0.291 0.166,-0.199 0.246,-0.483 0.246,-0.862 l 0,-4.485 2.084,2.184 c 0.26,0.269 0.453,0.457 0.586,0.552 0.137,0.102 0.303,0.149 0.496,0.149 0.233,0 0.422,-0.068 0.58,-0.222 C 1.258,6.305 1.336,6.122 1.336,5.899 1.336,5.628 1.084,5.269 0.584,4.817 L -0.402,3.917 1.496,0.935 C 1.641,0.712 1.74,0.545 1.801,0.431 1.857,0.318 1.891,0.204 1.891,0.104 1.891,-0.191 1.812,-0.421 1.652,-0.595 1.49,-0.76 1.273,-0.847 1.016,-0.847 0.789,-0.847 0.619,-0.783 0.492,-0.661 0.373,-0.542 0.209,-0.318 0,0" /></g><g
         transform="translate(464.3574,13.8047)"
         id="g3081"><path
           inkscape:connector-curvature="0"
           id="path3083"
           style="fill:#000000;fill-opacity:1;fill-rule:nonzero;stroke:none"
           d="m 0,0 c -0.279,0 -0.521,0.09 -0.723,0.273 -0.205,0.179 -0.312,0.432 -0.312,0.757 0,0.276 0.101,0.514 0.297,0.711 0.195,0.198 0.439,0.3 0.718,0.3 0.284,0 0.528,-0.102 0.729,-0.296 C 0.91,1.548 1.012,1.312 1.012,1.03 1.012,0.71 0.91,0.454 0.709,0.273 0.508,0.09 0.273,0 0,0" /></g><g
         transform="translate(474.1113,16.0957)"
         id="g3085"><path
           inkscape:connector-curvature="0"
           id="path3087"
           style="fill:#000000;fill-opacity:1;fill-rule:nonzero;stroke:none"
           d="m 0,0 c 0,-0.229 -0.068,-0.475 -0.209,-0.736 -0.137,-0.269 -0.348,-0.515 -0.627,-0.752 -0.283,-0.237 -0.643,-0.429 -1.068,-0.57 -0.43,-0.146 -0.918,-0.218 -1.451,-0.218 -1.143,0 -2.036,0.333 -2.676,1 -0.641,0.665 -0.963,1.556 -0.963,2.677 0,0.76 0.146,1.433 0.439,2.012 0.291,0.584 0.721,1.034 1.278,1.351 0.556,0.318 1.216,0.474 1.99,0.474 0.476,0 0.916,-0.067 1.316,-0.209 0.403,-0.135 0.741,-0.314 1.02,-0.539 0.277,-0.219 0.488,-0.455 0.635,-0.706 0.148,-0.255 0.22,-0.485 0.22,-0.704 0,-0.225 -0.082,-0.41 -0.25,-0.56 -0.164,-0.155 -0.363,-0.23 -0.597,-0.23 -0.155,0 -0.286,0.041 -0.383,0.116 -0.106,0.079 -0.215,0.206 -0.342,0.385 -0.223,0.343 -0.461,0.603 -0.709,0.773 -0.246,0.169 -0.561,0.255 -0.937,0.255 -0.543,0 -0.985,-0.215 -1.323,-0.639 -0.332,-0.429 -0.502,-1.01 -0.502,-1.75 0,-0.35 0.043,-0.669 0.133,-0.96 0.08,-0.289 0.209,-0.537 0.369,-0.749 0.16,-0.2 0.362,-0.361 0.588,-0.464 0.231,-0.107 0.488,-0.158 0.762,-0.158 0.367,0 0.687,0.089 0.953,0.254 0.262,0.18 0.496,0.434 0.699,0.79 0.115,0.207 0.237,0.37 0.365,0.481 0.133,0.123 0.291,0.179 0.481,0.179 0.23,0 0.412,-0.08 0.564,-0.254 C -0.078,0.373 0,0.193 0,0" /></g><g
         transform="translate(480.793,17.5645)"
         id="g3089"><path
           inkscape:connector-curvature="0"
           id="path3091"
           style="fill:#000000;fill-opacity:1;fill-rule:nonzero;stroke:none"
           d="m 0,0 c 0,0.755 -0.17,1.341 -0.5,1.763 -0.33,0.418 -0.773,0.63 -1.34,0.63 -0.357,0 -0.676,-0.091 -0.955,-0.279 C -3.068,1.925 -3.281,1.646 -3.432,1.282 -3.58,0.916 -3.654,0.488 -3.654,0 c 0,-0.483 0.074,-0.905 0.222,-1.265 0.145,-0.363 0.358,-0.633 0.629,-0.829 0.274,-0.193 0.596,-0.283 0.963,-0.283 0.567,0 1.01,0.203 1.34,0.624 C -0.17,-1.326 0,-0.74 0,0 M 1.854,0 C 1.854,-0.546 1.775,-1.056 1.6,-1.52 1.428,-1.989 1.178,-2.389 0.852,-2.72 0.527,-3.055 0.143,-3.314 -0.312,-3.497 -0.766,-3.67 -1.273,-3.76 -1.84,-3.76 c -0.553,0 -1.06,0.09 -1.508,0.274 -0.443,0.178 -0.838,0.436 -1.166,0.769 -0.32,0.343 -0.576,0.738 -0.742,1.197 -0.166,0.457 -0.254,0.967 -0.254,1.52 0,0.561 0.088,1.069 0.264,1.543 0.166,0.458 0.412,0.86 0.728,1.188 0.325,0.332 0.715,0.583 1.17,0.761 0.457,0.182 0.957,0.267 1.508,0.267 0.567,0 1.07,-0.091 1.528,-0.271 C 0.145,3.311 0.533,3.053 0.859,2.715 1.187,2.383 1.43,1.987 1.6,1.524 1.775,1.062 1.854,0.554 1.854,0" /></g><g
         transform="translate(490.2598,17.4326)"
         id="g3093"><path
           inkscape:connector-curvature="0"
           id="path3095"
           style="fill:#000000;fill-opacity:1;fill-rule:nonzero;stroke:none"
           d="m 0,0 0,-2.462 c 0,-0.39 -0.088,-0.681 -0.262,-0.874 -0.179,-0.198 -0.412,-0.292 -0.701,-0.292 -0.279,0 -0.506,0.094 -0.682,0.292 -0.173,0.193 -0.263,0.484 -0.263,0.874 l 0,2.945 c 0,0.47 -0.014,0.824 -0.043,1.087 -0.031,0.256 -0.117,0.47 -0.26,0.631 C -2.35,2.369 -2.57,2.447 -2.875,2.447 -3.477,2.447 -3.879,2.242 -4.068,1.826 -4.26,1.41 -4.357,0.813 -4.357,0.04 l 0,-2.502 c 0,-0.385 -0.086,-0.673 -0.262,-0.87 -0.174,-0.195 -0.404,-0.296 -0.688,-0.296 -0.277,0 -0.505,0.101 -0.689,0.296 -0.178,0.197 -0.266,0.485 -0.266,0.87 l 0,5.295 c 0,0.343 0.076,0.609 0.239,0.787 0.164,0.18 0.375,0.271 0.632,0.271 0.258,0 0.469,-0.085 0.633,-0.248 C -4.582,3.468 -4.5,3.231 -4.5,2.938 l 0,-0.172 c 0.32,0.38 0.664,0.661 1.031,0.84 0.364,0.179 0.774,0.272 1.217,0.272 0.469,0 0.867,-0.093 1.199,-0.277 0.338,-0.185 0.612,-0.466 0.828,-0.835 0.311,0.373 0.649,0.654 1.006,0.838 0.354,0.181 0.75,0.274 1.184,0.274 0.506,0 0.943,-0.097 1.308,-0.296 C 3.641,3.378 3.91,3.096 4.092,2.729 4.254,2.393 4.33,1.868 4.33,1.148 l 0,-3.61 c 0,-0.39 -0.092,-0.681 -0.268,-0.874 -0.171,-0.198 -0.402,-0.292 -0.693,-0.292 -0.277,0 -0.512,0.101 -0.685,0.296 -0.184,0.197 -0.272,0.485 -0.272,0.87 l 0,3.112 C 2.412,1.044 2.398,1.364 2.361,1.605 2.322,1.843 2.236,2.045 2.09,2.205 1.937,2.369 1.713,2.447 1.41,2.447 1.164,2.447 0.937,2.374 0.717,2.231 0.5,2.092 0.322,1.895 0.201,1.646 0.066,1.339 0,0.788 0,0" /></g><g
         transform="translate(401.3437,26.0938)"
         id="g3097"><path
           inkscape:connector-curvature="0"
           id="path3099"
           style="fill:#000000;fill-opacity:1;fill-rule:nonzero;stroke:none"
           d="M 0,0 C -0.035,0.116 -0.072,0.237 -0.111,0.354 0.504,0.411 0.924,1.158 0.623,1.709 0.344,2.33 -0.614,2.406 -0.983,1.837 -1.377,1.331 -1.069,0.535 -0.465,0.373 c 0.041,-0.124 0.072,-0.257 0.111,-0.382 -0.93,-0.066 -1.879,-0.271 -2.664,-0.802 0.082,-0.219 0.162,-0.456 0.242,-0.68 1.58,0.691 3.342,0.543 5.006,0.376 0.059,0.219 0.114,0.439 0.168,0.659 C 1.645,-0.12 0.82,0.005 0,0" /></g><g
         transform="translate(410.7227,23.5498)"
         id="g3101"><path
           inkscape:connector-curvature="0"
           id="path3103"
           style="fill:#000000;fill-opacity:1;fill-rule:nonzero;stroke:none"
           d="m 0,0 c -0.248,-0.125 -0.295,-0.43 -0.283,-0.681 -0.278,-0.267 -0.145,-0.678 -0.174,-1.012 -0.063,-0.191 -0.289,-0.214 -0.447,-0.287 -0.219,0.336 -0.45,0.654 -0.746,0.926 l 0.005,0.016 c -0.32,0.296 -0.664,0.566 -1.025,0.804 -0.289,-0.311 -0.596,-0.62 -0.875,-0.942 0.553,-0.61 1.066,-1.272 1.52,-1.958 0.314,-0.525 0.562,-1.085 0.783,-1.656 0.467,0.243 0.931,0.494 1.4,0.738 -0.248,0.572 -0.529,1.131 -0.83,1.677 0.205,0.111 0.486,0.219 0.516,0.491 0.023,0.3 -0.039,0.623 0.135,0.886 C 0.344,-1.231 0.895,-0.97 0.898,-0.53 0.947,-0.069 0.375,0.256 0,0" /></g><g
         transform="translate(407.0488,19.7578)"
         id="g3105"><path
           inkscape:connector-curvature="0"
           id="path3107"
           style="fill:#000000;fill-opacity:1;fill-rule:nonzero;stroke:none"
           d="m 0,0 c -0.113,-0.766 -0.842,-1.407 -1.621,-1.358 -0.451,-0.039 -0.885,0.172 -1.192,0.493 -0.22,0.273 -0.4,0.585 -0.431,0.948 -0.106,0.771 0.439,1.57 1.197,1.754 0.332,0.094 0.684,0.042 1.014,-0.038 C -0.324,1.55 0.143,0.742 0,0 m -6.852,-1.613 c -0.307,-0.443 -0.748,-0.786 -1.252,-0.98 -0.953,-0.354 -2.107,-0.11 -2.793,0.646 -0.477,0.525 -0.76,1.23 -0.709,1.947 0.039,0.891 0.59,1.723 1.373,2.139 0.594,0.32 1.313,0.378 1.967,0.195 0.271,-0.066 0.519,-0.195 0.754,-0.35 0.484,-0.339 0.842,-0.842 1.006,-1.414 0.222,-0.729 0.078,-1.549 -0.346,-2.183 M 1.137,0.391 C 0.527,1.404 -0.133,2.413 -1.033,3.19 -2.066,4.104 -3.416,4.722 -4.816,4.715 -6.583,4.73 -8.374,4.451 -10,3.742 c -1.534,-0.674 -2.87,-1.881 -3.543,-3.43 -0.653,-1.393 -0.641,-3.003 -0.348,-4.489 1.625,-0.405 3.279,-0.766 4.953,-0.843 1.658,-0.051 3.319,-0.09 4.965,0.136 2.258,0.302 4.473,1.012 6.446,2.168 0,0 -0.276,1.486 -1.336,3.107" /></g><g
         transform="translate(393.5249,22.4102)"
         id="g3109"><path
           inkscape:connector-curvature="0"
           id="path3111"
           style="fill:#000000;fill-opacity:1;fill-rule:nonzero;stroke:none"
           d="m 0,0 c -0.66,-0.397 -1.203,-0.961 -1.656,-1.579 -0.133,0.248 -0.172,0.539 -0.344,0.76 -0.098,0.129 -0.275,0.075 -0.41,0.075 -0.178,-0.015 -0.348,0.032 -0.514,0.081 0.195,0.27 0.143,0.688 -0.152,0.869 -0.317,0.224 -0.807,0.029 -0.893,-0.349 -0.131,-0.411 0.307,-0.826 0.711,-0.716 0.217,-0.319 0.606,-0.268 0.936,-0.277 0.146,-0.26 0.261,-0.541 0.453,-0.774 -0.356,-0.698 -0.557,-1.481 -0.574,-2.263 0.457,-0.191 0.914,-0.385 1.367,-0.576 0.021,0.498 0.082,0.988 0.154,1.47 0.152,1.067 0.766,1.986 1.494,2.745 C 0.393,-0.344 0.189,-0.179 0,0" /></g><g
         transform="translate(404.1562,14.4121)"
         id="g3113"><path
           inkscape:connector-curvature="0"
           id="path3115"
           style="fill:#000000;fill-opacity:1;fill-rule:nonzero;stroke:none"
           d="m 0,0 c -1.678,-0.366 -3.405,-0.475 -5.118,-0.399 -1.158,0.054 -2.318,0.166 -3.447,0.417 -0.803,0.163 -1.59,0.396 -2.383,0.623 0.129,-1.007 0.537,-1.972 1.119,-2.804 0.688,-0.966 1.608,-1.85 2.75,-2.209 0.891,-0.243 1.954,-0.546 3.789,-0.514 1.515,0.024 3.003,0.216 4.331,0.786 0.857,0.367 1.658,0.868 2.352,1.497 0.595,0.563 1.064,1.265 1.384,2.014 C 5.09,0.125 5.373,1.399 5.344,2.057 3.701,1.122 1.871,0.312 0,0" /></g><g
         transform="translate(760.9805,130.3857)"
         id="g3117"><path
           inkscape:connector-curvature="0"
           id="path3119"
           style="fill:#1d1d1b;fill-opacity:1;fill-rule:nonzero;stroke:none"
           d="M 0,0 -102.088,-17.808 -114.128,51.221 -12.04,69.028 0,0 z" /></g><g
         transform="translate(514.8594,115.6953)"
         id="g3121"><path
           inkscape:connector-curvature="0"
           id="path3123"
           style="fill:#1d1d1b;fill-opacity:1;fill-rule:nonzero;stroke:none"
           d="m 0,0 c -8.049,-3.763 -10.943,-11.872 2.011,-25.272 12.953,-13.402 37.709,-20.187 43.292,-12.496 3.482,4.797 4.025,10.708 4.025,10.708 l -14.71,16.528 C 34.618,-10.532 11.391,5.324 0,0" /></g><g
         transform="translate(589.0371,124.1826)"
         id="g3125"><path
           inkscape:connector-curvature="0"
           id="path3127"
           style="fill:#1d1d1b;fill-opacity:1;fill-rule:nonzero;stroke:none"
           d="m 0,0 c -8.049,-3.763 -10.942,-11.872 2.011,-25.273 12.953,-13.401 37.709,-20.186 43.292,-12.495 3.483,4.796 4.025,10.707 4.025,10.707 l -14.71,16.529 C 34.618,-10.532 11.391,5.324 0,0" /></g><g
         transform="translate(629.1182,215.8437)"
         id="g3129"><path
           inkscape:connector-curvature="0"
           id="path3131"
           style="fill:#3c3c3b;fill-opacity:1;fill-rule:nonzero;stroke:none"
           d="m 0,0 c 0.607,-6.682 1.441,-14.784 2.549,-23.455 2.603,-20.364 6.27,-72.969 6.698,-95.713 -0.95,-0.128 -1.951,-0.198 -2.983,-0.227 -10.008,-0.278 -23.266,3.785 -28.912,5.569 -1.362,0.43 -2.289,0.729 -2.611,0.801 0.525,6.367 -0.514,24.57 -3.616,55.548 -3.362,33.579 -3.883,43.099 -3.883,43.099 l -40.989,0.445 c 0,0 1.312,-17.302 3.04,-29.747 1.521,-10.948 4.436,-67.894 5.776,-83.528 -0.961,-0.035 -1.899,-0.012 -2.83,0.037 -8.964,0.471 -16.442,4.572 -22.013,6.721 -1.011,0.389 -1.967,0.721 -2.85,0.947 -1.595,3.459 -4.047,32.422 -10.433,66.249 -5.96,31.573 -6.518,49.953 -6.257,58.55 14.545,-5.587 33.506,-11.2 52.478,-12.029 C -37.492,-7.581 -16.421,-3.929 0,0" /></g><g
         transform="translate(386.8403,362.3457)"
         id="g3133"><path
           inkscape:connector-curvature="0"
           id="path3135"
           style="fill:#ffe1aa;fill-opacity:1;fill-rule:nonzero;stroke:none"
           d="m 0,0 c 2.776,8.014 13.304,11.641 23.519,8.104 0.227,-0.079 0.438,-0.174 0.661,-0.261 0.122,2.906 1.195,5.148 3.07,5.807 3.087,1.08 7.167,-2.553 9.112,-8.116 1.101,-3.145 1.281,-6.231 0.676,-8.514 0.363,-0.459 0.768,-0.972 1.195,-1.513 l -8.086,-19.954 c -6.956,1.301 -14.599,2.811 -16.679,3.532 C 3.256,-17.374 -2.778,-8.013 0,0" /></g><g
         transform="translate(425.0752,357.8535)"
         id="g3137"><path
           inkscape:connector-curvature="0"
           id="path3139"
           style="fill:#f2c183;fill-opacity:1;fill-rule:nonzero;stroke:none"
           d="m 0,0 c 0.697,-0.883 1.467,-1.853 2.255,-2.838 l -7.009,-17.736 c -1.075,0.197 -2.193,0.404 -3.334,0.617 l 0,0.002 8.086,19.954 L 0,0 z" /></g><g
         transform="translate(427.3301,355.0156)"
         id="g3141"><path
           inkscape:connector-curvature="0"
           id="path3143"
           style="fill:#ffffff;fill-opacity:1;fill-rule:nonzero;stroke:none"
           d="m 0,0 0.258,0.652 4.418,-1.955 -5.908,-19.013 -5.949,2.148 0.172,0.432 L 0,0 z" /></g><g
         transform="translate(705.7119,208.501)"
         id="g3145"><path
           inkscape:connector-curvature="0"
           id="path3147"
           style="fill:#ffe1aa;fill-opacity:1;fill-rule:nonzero;stroke:none"
           d="m 0,0 c 3.907,-10.078 0.672,-20.735 -7.234,-23.801 -7.908,-3.066 -17.485,2.615 -21.395,12.692 -0.088,0.223 -0.152,0.447 -0.23,0.671 -2.294,-1.786 -4.697,-2.418 -6.412,-1.415 -2.824,1.656 -2.692,7.117 0.292,12.2 1.686,2.874 3.922,5.008 6.055,6.023 0.115,0.573 0.244,1.213 0.381,1.892 l 20.447,6.743 C -4.587,8.856 -0.796,2.051 0,0" /></g><g
         transform="translate(695.9326,226.4463)"
         id="g3149"><path
           inkscape:connector-curvature="0"
           id="path3151"
           style="fill:#f2c183;fill-opacity:1;fill-rule:nonzero;stroke:none"
           d="m 0,0 c 0.544,-0.947 1.109,-1.935 1.686,-2.94 l -0.002,0 -20.448,-6.744 c 0.22,1.103 0.462,2.317 0.704,3.555 L 0,0 z" /></g><g
         transform="translate(694.5732,231.418)"
         id="g3153"><path
           inkscape:connector-curvature="0"
           id="path3155"
           style="fill:#ffffff;fill-opacity:1;fill-rule:nonzero;stroke:none"
           d="m 0,0 1.797,-4.823 -0.438,-0.149 -18.059,-6.129 -0.664,-0.225 -1.83,6.192 L 0,0 z" /></g><g
         transform="translate(572.2822,212.6836)"
         id="g3157"><path
           inkscape:connector-curvature="0"
           id="path3159"
           style="fill:#1d1d1b;fill-opacity:1;fill-rule:nonzero;stroke:none"
           d="M 0,0 C 19.223,-0.842 40.151,2.759 56.526,6.659 56.623,5.541 56.726,4.378 56.836,3.16 40.415,-0.769 19.344,-4.421 0,-3.573 -18.972,-2.744 -37.933,2.869 -52.479,8.456 l 0,0 c 0,0.016 10e-4,0.03 10e-4,0.046 0.044,1.415 0.11,2.561 0.178,3.46 C -37.778,6.397 -18.895,0.826 0,0" /></g><g
         transform="translate(432.0059,353.7129)"
         id="g3161"><path
           inkscape:connector-curvature="0"
           id="path3163"
           style="fill:#3c3c3b;fill-opacity:1;fill-rule:nonzero;stroke:none"
           d="m 0,0 1.205,3.882 c 0,0 32.351,-14.829 57.075,-3.028 24.722,11.802 35.228,28.212 51.004,29.028 15.781,0.818 76.945,-22.212 76.945,-22.212 0,0 26.127,3.402 47.976,-37.974 21.849,-41.374 31.676,-91.105 31.676,-91.105 l -3.314,-0.886 -19.194,-5.134 -3.102,-0.829 -39.44,93.302 25.232,-90.932 c 0,0 -12.142,-4.404 -29.26,-8.482 -16.375,-3.901 -37.304,-7.501 -56.527,-6.659 -18.894,0.826 -37.778,6.397 -52.299,11.962 -0.069,-0.899 -0.134,-2.045 -0.178,-3.46 0.044,1.415 0.107,2.564 0.176,3.461 -15.695,6.012 -26.293,12.018 -26.293,12.018 l 33.801,95.027 c 0,0 -30.291,-14.345 -59.675,-12.631 C 6.422,-32.938 -6.899,-22.2 -6.899,-22.2 l 0.991,3.186 L 0,0 z" /></g><g
         transform="translate(534.0176,459.7632)"
         id="g3165"><path
           inkscape:connector-curvature="0"
           id="path3167"
           style="fill:#ffe1aa;fill-opacity:1;fill-rule:nonzero;stroke:none"
           d="M 0,0 C 0.128,0.292 0.262,0.582 0.393,0.872 0.263,0.581 0.128,0.292 0,0" /></g><g
         transform="translate(668.7578,446.582)"
         id="g3169"><path
           inkscape:connector-curvature="0"
           id="path3171"
           style="fill:#634e42;fill-opacity:1;fill-rule:nonzero;stroke:none"
           d="m 0,0 c -10.635,18.976 -21.226,16.379 -21.226,16.379 0,0 -6.713,29.91 -38.184,43.794 -31.47,13.886 -52.693,-5.457 -69.951,-9.419 -17.258,-3.961 -30.191,8.022 -30.191,8.022 0,0 2.482,-17.094 10.97,-19.103 -6.625,-5.075 -17.054,5.049 -17.054,5.049 0,0 8.477,-17.804 31.288,-30.669 l 0.001,0 c -0.131,-0.291 -0.265,-0.579 -0.393,-0.872 -0.36,-0.821 -0.707,-1.647 -1.034,-2.482 -0.001,-0.007 -0.005,-0.012 -0.007,-0.019 -11.282,-28.816 -3.548,-65.318 6.148,-76.843 9.641,-11.46 62.773,-26.626 81.275,-22.953 0.002,0 0.004,0.001 0.005,0.002 0.029,0.004 0.06,0.009 0.088,0.014 -0.073,-0.072 -0.115,-0.111 -0.115,-0.111 0,0 16.845,0.267 34.621,19.046 C 4.019,-51.386 10.634,-18.975 0,0" /></g><g
         transform="translate(550.0078,373.7812)"
         id="g3173"><path
           inkscape:connector-curvature="0"
           id="path3175"
           style="fill:#ffe1aa;fill-opacity:1;fill-rule:nonzero;stroke:none"
           d="m 0,0 c -0.033,-0.006 -0.063,-0.016 -0.097,-0.022 0.031,0.005 0.061,0.01 0.09,0.015 C -0.004,-0.005 -0.002,-0.001 0,0" /></g><g
         transform="translate(549.9062,373.7578)"
         id="g3177"><path
           inkscape:connector-curvature="0"
           id="path3179"
           style="fill:#ffe1aa;fill-opacity:1;fill-rule:nonzero;stroke:none"
           d="m 0,0 c 3.06,3.288 8.02,9.079 11.104,15.058 4.716,9.138 1.501,18.38 1.501,18.38 0,0 7.216,-2.251 14.159,6.231 0.89,1.199 1.63,2.626 2.133,4.328 3.237,10.956 -0.596,18.852 -10.085,23.234 -9.493,4.385 -19.65,-5.417 -19.65,-5.417 0,0 2.896,17.476 -11.731,25.121 -2.029,1.06 -2.926,-0.058 -2.927,-0.058 l 0.001,0 c -0.131,-0.291 -0.266,-0.579 -0.394,-0.872 -0.359,-0.821 -0.707,-1.647 -1.034,-2.482 -0.001,-0.006 -0.005,-0.012 -0.007,-0.019 C -28.212,54.688 -20.478,18.187 -10.781,6.661 -8.935,4.466 -5.488,2.135 -0.999,-0.174 -0.656,-0.121 -0.321,-0.063 0,0" /></g><g
         transform="translate(549.9111,373.7588)"
         id="g3181"><path
           inkscape:connector-curvature="0"
           id="path3183"
           style="fill:#ffe1aa;fill-opacity:1;fill-rule:nonzero;stroke:none"
           d="M 0,0 C -0.001,0 -0.003,0 -0.005,-0.001 -0.003,-0.001 -0.001,0 0,0" /></g><g
         transform="translate(549.9111,373.7588)"
         id="g3185"><path
           inkscape:connector-curvature="0"
           id="path3187"
           style="fill:#f2c183;fill-opacity:1;fill-rule:nonzero;stroke:none"
           d="M 0,0 C -0.001,0 -0.003,0 -0.005,-0.001 -0.003,-0.001 -0.001,0 0,0" /></g><g
         transform="translate(550.0078,373.7812)"
         id="g3189"><path
           inkscape:connector-curvature="0"
           id="path3191"
           style="fill:#f2c183;fill-opacity:1;fill-rule:nonzero;stroke:none"
           d="m 0,0 c -0.033,-0.006 -0.063,-0.016 -0.097,-0.022 0.031,0.005 0.061,0.01 0.09,0.015 C -0.004,-0.005 -0.002,-0.001 0,0" /></g><g
         transform="translate(533.8027,459.2485)"
         id="g3193"><path
           inkscape:connector-curvature="0"
           id="path3195"
           style="fill:#f2c183;fill-opacity:1;fill-rule:nonzero;stroke:none"
           d="m 0,0 c 0.259,-0.073 0.541,-0.179 0.854,-0.343 14.627,-7.644 11.732,-25.12 11.732,-25.12 0,0 1.03,0.992 2.737,2.203 C 15.648,-20.575 16.83,-5.505 3.534,1.444 1.506,2.504 0.608,1.386 0.607,1.386 l 0.001,0 C 0.478,1.096 0.343,0.807 0.215,0.515 0.141,0.344 0.072,0.171 0,0" /></g><g
         transform="translate(559.8311,405.4092)"
         id="g3197"><path
           inkscape:connector-curvature="0"
           id="path3199"
           style="fill:#f2c183;fill-opacity:1;fill-rule:nonzero;stroke:none"
           d="m 0,0 c 0,0 3.216,-9.241 -1.5,-18.38 -2.611,-5.06 -6.562,-9.979 -9.57,-13.368 0.049,-0.025 0.096,-0.051 0.146,-0.077 0.343,0.053 0.678,0.11 0.999,0.174 3.06,3.288 8.02,9.079 11.105,15.057 3.378,6.547 2.686,13.145 2.021,16.362 C 1.247,-0.386 0,0 0,0" /></g><g
         transform="translate(568.7178,440.9893)"
         id="g3201"><path
           inkscape:connector-curvature="0"
           id="path3203"
           style="fill:#f2c183;fill-opacity:1;fill-rule:nonzero;stroke:none"
           d="m 0,0 c -6.847,3.163 -14.036,-1.055 -17.514,-3.651 3.837,2.268 9.441,4.355 14.833,1.864 9.491,-4.382 13.324,-12.278 10.086,-23.235 -0.503,-1.701 -1.243,-3.128 -2.133,-4.327 -1.042,-1.273 -2.089,-2.299 -3.119,-3.133 1.842,0.976 3.831,2.516 5.799,4.92 0.891,1.198 1.63,2.626 2.134,4.327 C 13.322,-12.278 9.489,-4.382 0,0" /></g><g
         transform="translate(684.3271,194.7764)"
         id="g3205"><path
           inkscape:connector-curvature="0"
           id="path3207"
           style="fill:#1d1d1b;fill-opacity:1;fill-rule:nonzero;stroke:none"
           d="m 0,0 c -4.842,-0.905 -8.045,-5.582 -7.139,-10.423 l 2.602,-13.919 c 0.905,-4.841 5.582,-8.043 10.424,-7.138 l 20.693,3.87 c 4.841,0.905 8.044,5.581 7.139,10.423 L 31.116,-3.27 C 30.212,1.571 25.536,4.773 20.694,3.869 L 0,0 z M 27.893,-34.636 7.201,-38.505 c -8.716,-1.63 -17.135,4.136 -18.763,12.851 l -2.603,13.917 c -1.629,8.715 4.137,17.133 12.852,18.763 l 20.693,3.869 c 8.716,1.628 17.133,-4.136 18.763,-12.851 l 2.601,-13.918 c 1.631,-8.715 -4.136,-17.133 -12.851,-18.762" /></g></g></g></svg>